<svg width="25" height="25" viewBox="0 0 25 25" fill="none" xmlns="http://www.w3.org/2000/svg">
<path d="M12.5001 7.77461C11.3472 7.77461 10.3171 8.30111 9.63675 9.12461C9.21689 9.63343 8.9402 10.2449 8.83514 10.8962C8.73008 11.5475 8.80046 12.215 9.03902 12.83C9.27758 13.445 9.67571 13.9854 10.1924 14.3955C10.7092 14.8055 11.3259 15.0705 11.979 15.1632C12.8668 13.4505 14.3845 12.1491 16.2126 11.533V11.4871C16.2126 10.5894 15.894 9.76586 15.3634 9.12461C14.683 8.30111 13.653 7.77461 12.5001 7.77461ZM24.214 13.7443C23.4056 12.7982 22.3718 12.0709 21.2081 11.6297C20.0444 11.1885 18.7884 11.0475 17.5558 11.2198C17.5185 10.4878 17.3218 9.77271 16.9794 9.12461H22.6251C23.1622 9.12461 23.6772 9.33796 24.057 9.71772C24.4367 10.0975 24.6501 10.6125 24.6501 11.1496V11.8246C24.6501 12.4726 24.5016 13.126 24.214 13.7443ZM11.4295 16.5496C11.2435 17.2085 11.1494 17.89 11.1501 18.5746C11.1501 21.0006 12.3124 23.1538 14.112 24.5079C13.58 24.6034 13.0406 24.6509 12.5001 24.6496C8.2611 24.6496 5.7501 21.9105 5.7501 19.2496V18.5746C5.74938 18.3085 5.80128 18.0448 5.90279 17.7988C6.0043 17.5528 6.15344 17.3293 6.34162 17.1411C6.5298 16.9529 6.75332 16.8038 6.99932 16.7023C7.24533 16.6008 7.50897 16.5489 7.7751 16.5496H11.4295ZM4.82535 16.933C1.97685 16.1622 0.350098 13.9671 0.350098 11.8246V11.1496C0.350098 10.6125 0.563445 10.0975 0.943206 9.71772C1.32297 9.33796 1.83803 9.12461 2.3751 9.12461H8.02215C7.63727 9.85255 7.43657 10.6637 7.4376 11.4871C7.4367 12.1842 7.58017 12.874 7.85899 13.5129C8.1378 14.1519 8.5459 14.7262 9.0576 15.1996H7.7751C7.17356 15.1995 6.58291 15.3601 6.06429 15.6648C5.54568 15.9696 5.11793 16.4074 4.82535 16.933ZM7.1001 0.349609C8.08471 0.349609 9.029 0.740747 9.72523 1.43698C10.4215 2.1332 10.8126 3.07749 10.8126 4.06211C10.8126 5.04673 10.4215 5.99101 9.72523 6.68724C9.029 7.38347 8.08471 7.77461 7.1001 7.77461C6.11548 7.77461 5.17119 7.38347 4.47496 6.68724C3.77873 5.99101 3.3876 5.04673 3.3876 4.06211C3.3876 3.07749 3.77873 2.1332 4.47496 1.43698C5.17119 0.740747 6.11548 0.349609 7.1001 0.349609ZM17.9001 0.349609C18.8847 0.349609 19.829 0.740747 20.5252 1.43698C21.2215 2.1332 21.6126 3.07749 21.6126 4.06211C21.6126 5.04673 21.2215 5.99101 20.5252 6.68724C19.829 7.38347 18.8847 7.77461 17.9001 7.77461C16.9155 7.77461 15.9712 7.38347 15.275 6.68724C14.5787 5.99101 14.1876 5.04673 14.1876 4.06211C14.1876 3.07749 14.5787 2.1332 15.275 1.43698C15.9712 0.740747 16.9155 0.349609 17.9001 0.349609ZM18.5751 24.6496C20.1863 24.6496 21.7315 24.0096 22.8708 22.8703C24.0101 21.731 24.6501 20.1858 24.6501 18.5746C24.6501 16.9634 24.0101 15.4182 22.8708 14.2789C21.7315 13.1397 20.1863 12.4996 18.5751 12.4996C16.9639 12.4996 15.4187 13.1397 14.2794 14.2789C13.1401 15.4182 12.5001 16.9634 12.5001 18.5746C12.5001 20.1858 13.1401 21.731 14.2794 22.8703C15.4187 24.0096 16.9639 24.6496 18.5751 24.6496ZM18.5751 15.1996C18.7541 15.1996 18.9258 15.2707 19.0524 15.3973C19.179 15.5239 19.2501 15.6956 19.2501 15.8746V17.8996H21.2751C21.4541 17.8996 21.6258 17.9707 21.7524 18.0973C21.879 18.2239 21.9501 18.3956 21.9501 18.5746C21.9501 18.7536 21.879 18.9253 21.7524 19.0519C21.6258 19.1785 21.4541 19.2496 21.2751 19.2496H19.2501V21.2746C19.2501 21.4536 19.179 21.6253 19.0524 21.7519C18.9258 21.8785 18.7541 21.9496 18.5751 21.9496C18.3961 21.9496 18.2244 21.8785 18.0978 21.7519C17.9712 21.6253 17.9001 21.4536 17.9001 21.2746V19.2496H15.8751C15.6961 19.2496 15.5244 19.1785 15.3978 19.0519C15.2712 18.9253 15.2001 18.7536 15.2001 18.5746C15.2001 18.3956 15.2712 18.2239 15.3978 18.0973C15.5244 17.9707 15.6961 17.8996 15.8751 17.8996H17.9001V15.8746C17.9001 15.6956 17.9712 15.5239 18.0978 15.3973C18.2244 15.2707 18.3961 15.1996 18.5751 15.1996Z" fill="#FF007A"/>
</svg>
