<svg width="30" height="29" viewBox="0 0 30 29" fill="none" xmlns="http://www.w3.org/2000/svg">
<path fill-rule="evenodd" clip-rule="evenodd" d="M1.1137 12.8185C1.11371 6.21067 6.47037 0.854004 13.0782 0.854004H18.9722C24.8673 0.854004 29.6462 5.63294 29.6462 11.5281V17.1144C29.6462 23.0342 24.8473 27.8332 18.9275 27.8332H14.0612L9.26661 27.7515C7.39329 27.7197 5.52469 27.9491 3.71473 28.4332L3.03568 28.6149C1.45491 29.0377 0.0383261 27.5329 0.555782 25.9805C1.08193 24.4021 1.33217 22.7448 1.29552 21.0814L1.11395 12.8409L2.13454 12.8185H1.1137ZM3.15538 12.8075L3.33669 21.0364C3.3785 22.9343 3.09299 24.8252 2.49268 26.6261C2.4917 26.6291 2.49114 26.6312 2.49083 26.6327C2.49161 26.6341 2.49303 26.6363 2.4955 26.639C2.49796 26.6416 2.50008 26.6431 2.50145 26.644C2.50293 26.6438 2.50513 26.6433 2.50812 26.6425L3.18717 26.4609C5.18043 25.9278 7.23828 25.6751 9.30131 25.7101L14.0872 25.7915H18.9275C23.7197 25.7915 27.6046 21.9066 27.6046 17.1144V11.5281C27.6046 6.76052 23.7397 2.89567 18.9722 2.89567H13.0782C7.60162 2.89567 3.16131 7.33232 3.15538 12.8075Z" fill="white"/>
</svg>
