<svg width="41" height="42" viewBox="0 0 41 42" fill="none" xmlns="http://www.w3.org/2000/svg">
<path d="M22.3088 2.30882C22.3088 1.82909 22.1182 1.36901 21.779 1.02979C21.4398 0.690572 20.9797 0.5 20.5 0.5C20.0203 0.5 19.5602 0.690572 19.221 1.02979C18.8817 1.36901 18.6912 1.82909 18.6912 2.30882V4.72059C18.6912 5.20032 18.8817 5.6604 19.221 5.99962C19.5602 6.33884 20.0203 6.52941 20.5 6.52941C20.9797 6.52941 21.4398 6.33884 21.779 5.99962C22.1182 5.6604 22.3088 5.20032 22.3088 4.72059V2.30882ZM32.5588 21C32.5588 24.1982 31.2883 27.2654 29.0269 29.5269C26.7654 31.7883 23.6982 33.0588 20.5 33.0588C17.3018 33.0588 14.2346 31.7883 11.9731 29.5269C9.71166 27.2654 8.44118 24.1982 8.44118 21C8.44118 17.8018 9.71166 14.7346 11.9731 12.4731C14.2346 10.2117 17.3018 8.94118 20.5 8.94118C23.6982 8.94118 26.7654 10.2117 29.0269 12.4731C31.2883 14.7346 32.5588 17.8018 32.5588 21V21ZM28.9412 21C28.9412 18.7613 28.0518 16.6142 26.4688 15.0312C24.8858 13.4482 22.7387 12.5588 20.5 12.5588V29.4412C22.7387 29.4412 24.8858 28.5518 26.4688 26.9688C28.0518 25.3858 28.9412 23.2387 28.9412 21V21ZM41 21C41 21.4797 40.8094 21.9398 40.4702 22.279C40.131 22.6182 39.6709 22.8088 39.1912 22.8088H36.7794C36.2997 22.8088 35.8396 22.6182 35.5004 22.279C35.1612 21.9398 34.9706 21.4797 34.9706 21C34.9706 20.5203 35.1612 20.0602 35.5004 19.721C35.8396 19.3817 36.2997 19.1912 36.7794 19.1912H39.1912C39.6709 19.1912 40.131 19.3817 40.4702 19.721C40.8094 20.0602 41 20.5203 41 21ZM22.3088 37.2794C22.3088 36.7997 22.1182 36.3396 21.779 36.0004C21.4398 35.6612 20.9797 35.4706 20.5 35.4706C20.0203 35.4706 19.5602 35.6612 19.221 36.0004C18.8817 36.3396 18.6912 36.7997 18.6912 37.2794V39.6912C18.6912 40.1709 18.8817 40.631 19.221 40.9702C19.5602 41.3094 20.0203 41.5 20.5 41.5C20.9797 41.5 21.4398 41.3094 21.779 40.9702C22.1182 40.631 22.3088 40.1709 22.3088 39.6912V37.2794ZM6.02941 21C6.02941 21.4797 5.83884 21.9398 5.49962 22.279C5.1604 22.6182 4.70032 22.8088 4.22059 22.8088H1.80882C1.32909 22.8088 0.869012 22.6182 0.529792 22.279C0.190572 21.9398 0 21.4797 0 21C0 20.5203 0.190572 20.0602 0.529792 19.721C0.869012 19.3817 1.32909 19.1912 1.80882 19.1912H4.22059C4.70032 19.1912 5.1604 19.3817 5.49962 19.721C5.83884 20.0602 6.02941 20.5203 6.02941 21ZM9.11647 7.06C8.77358 6.74049 8.32005 6.56655 7.85145 6.57481C7.38284 6.58308 6.93573 6.77292 6.60432 7.10432C6.27292 7.43573 6.08308 7.88284 6.07481 8.35145C6.06655 8.82005 6.24049 9.27358 6.56 9.61647L7.76588 10.8224C8.10877 11.1419 8.5623 11.3158 9.03091 11.3075C9.49952 11.2993 9.94662 11.1094 10.278 10.778C10.6094 10.4466 10.7993 9.99952 10.8075 9.53091C10.8158 9.0623 10.6419 8.60877 10.3224 8.26588L9.11647 7.06V7.06ZM6.56 34.94C6.89915 35.2787 7.3589 35.469 7.83824 35.469C8.31757 35.469 8.77732 35.2787 9.11647 34.94L10.3224 33.7341C10.5001 33.5685 10.6426 33.3688 10.7415 33.1469C10.8403 32.9251 10.8935 32.6855 10.8978 32.4427C10.9021 32.1998 10.8574 31.9586 10.7664 31.7333C10.6754 31.5081 10.54 31.3035 10.3683 31.1317C10.1965 30.96 9.99191 30.8246 9.76668 30.7336C9.54145 30.6426 9.3002 30.5979 9.05733 30.6022C8.81446 30.6065 8.57494 30.6597 8.35305 30.7585C8.13117 30.8574 7.93148 30.9999 7.76588 31.1776L6.56 32.3835C6.22127 32.7227 6.031 33.1824 6.031 33.6618C6.031 34.1411 6.22127 34.6008 6.56 34.94V34.94ZM31.8835 7.06C32.0491 6.88228 32.2488 6.73974 32.4707 6.64088C32.6926 6.54202 32.9321 6.48886 33.175 6.48457C33.4178 6.48029 33.6591 6.52496 33.8843 6.61594C34.1096 6.70691 34.3142 6.84232 34.4859 7.01408C34.6577 7.18585 34.7931 7.39045 34.8841 7.61568C34.975 7.84091 35.0197 8.08215 35.0154 8.32502C35.0111 8.5679 34.958 8.80742 34.8591 9.0293C34.7603 9.25118 34.6177 9.45087 34.44 9.61647L33.2341 10.8224C33.0685 11.0001 32.8688 11.1426 32.6469 11.2415C32.4251 11.3403 32.1855 11.3935 31.9427 11.3978C31.6998 11.4021 31.4586 11.3574 31.2333 11.2664C31.0081 11.1754 30.8035 11.04 30.6317 10.8683C30.46 10.6965 30.3246 10.4919 30.2336 10.2667C30.1426 10.0414 30.0979 9.8002 30.1022 9.55733C30.1065 9.31446 30.1597 9.07494 30.2585 8.85305C30.3574 8.63117 30.4999 8.43148 30.6776 8.26588L31.8835 7.06ZM34.44 34.94C34.1008 35.2787 33.6411 35.469 33.1618 35.469C32.6824 35.469 32.2227 35.2787 31.8835 34.94L30.6776 33.7341C30.4999 33.5685 30.3574 33.3688 30.2585 33.1469C30.1597 32.9251 30.1065 32.6855 30.1022 32.4427C30.0979 32.1998 30.1426 31.9586 30.2336 31.7333C30.3246 31.5081 30.46 31.3035 30.6317 31.1317C30.8035 30.96 31.0081 30.8246 31.2333 30.7336C31.4586 30.6426 31.6998 30.5979 31.9427 30.6022C32.1855 30.6065 32.4251 30.6597 32.6469 30.7585C32.8688 30.8574 33.0685 30.9999 33.2341 31.1776L34.44 32.3835C34.7787 32.7227 34.969 33.1824 34.969 33.6618C34.969 34.1411 34.7787 34.6008 34.44 34.94Z" fill="#DBDBDB"/>
</svg>
