<svg width="26" height="25" viewBox="0 0 26 25" fill="none" xmlns="http://www.w3.org/2000/svg">
<path d="M22.6667 6.45866H21.2059C21.3831 5.87115 21.4683 5.25974 21.4584 4.64616C21.4584 2.31408 19.5613 0.416992 17.2292 0.416992C15.2693 0.416992 13.9607 2.20774 13.1161 4.1447C12.2835 2.31408 10.9085 0.416992 8.77091 0.416992C6.43883 0.416992 4.54175 2.31408 4.54175 4.64616C4.54175 5.36632 4.63721 5.96203 4.79429 6.45866H3.33341C2.00062 6.45866 0.916748 7.54253 0.916748 8.87532V11.292C0.916748 12.6248 2.00062 13.7087 3.33341 13.7087V22.167C3.33341 23.4998 4.41729 24.5837 5.75008 24.5837H20.2501C21.5829 24.5837 22.6667 23.4998 22.6667 22.167V13.7087C23.9995 13.7087 25.0834 12.6248 25.0834 11.292V8.87532C25.0834 7.54253 23.9995 6.45866 22.6667 6.45866ZM17.2292 2.83366C18.2285 2.83366 19.0417 3.64687 19.0417 4.64616C19.0417 6.45866 18.2853 6.45866 17.8334 6.45866H14.8392C15.4566 4.55433 16.3532 2.83366 17.2292 2.83366ZM6.95841 4.64616C6.95841 3.64687 7.77162 2.83366 8.77091 2.83366C9.84391 2.83366 10.842 4.67637 11.4268 6.45866H8.16675C7.71483 6.45866 6.95841 6.45866 6.95841 4.64616ZM3.33341 8.87532H11.7917V11.292H3.33341V8.87532ZM5.75008 22.167V13.7087H11.7917V22.167H5.75008ZM20.2501 22.167H14.2084V13.7087H20.2501V22.167ZM14.2084 11.292V8.97803L14.229 8.87532H22.6667L22.668 11.292H14.2084Z" fill="white"/>
</svg>
